name Run_300 02_newCOP3_v24.mot
datacolumns 19
datarows 15
range 3.60500000 3.61900000
endheader
                time	   R_ground_force_vx	   R_ground_force_vy	   R_ground_force_vz	   R_ground_force_px	   R_ground_force_py	   R_ground_force_pz	   L_ground_force_vx	   L_ground_force_vy	   L_ground_force_vz	   L_ground_force_px	   L_ground_force_py	   L_ground_force_pz	   R_ground_torque_x	   R_ground_torque_y	   R_ground_torque_z	   L_ground_torque_x	   L_ground_torque_y	   L_ground_torque_z	
          3.60500000	        133.56822200	        478.26269500	         28.69623800	          0.71485500	          0.00000000	         -0.31667300	          0.00000000	          0.00000000	          0.00000000	          0.00000000	          0.00000000	          0.00000000	          0.00000000	         -1.25539000	          0.00000000	          0.00000000	          0.00000000	          0.00000000	
          3.60600000	        131.39979600	        463.69729600	         28.12868700	          0.71287600	          0.00000000	         -0.31672300	          0.00000000	          0.00000000	          0.00000000	          0.00000000	          0.00000000	          0.00000000	          0.00000000	         -1.15424500	          0.00000000	          0.00000000	          0.00000000	          0.00000000	
          3.60700000	        129.18434100	        449.38610800	         27.55175800	          0.71091000	          0.00000000	         -0.31677600	          0.00000000	          0.00000000	          0.00000000	          0.00000000	          0.00000000	          0.00000000	          0.00000000	         -1.05277600	          0.00000000	          0.00000000	          0.00000000	          0.00000000	
          3.60800000	        126.92865800	        435.33435100	         26.96781500	          0.70895900	          0.00000000	         -0.31682800	          0.00000000	          0.00000000	          0.00000000	          0.00000000	          0.00000000	          0.00000000	          0.00000000	         -0.95122800	          0.00000000	          0.00000000	          0.00000000	          0.00000000	
          3.60900000	        124.63935900	        421.54647800	         26.37927400	          0.70702400	          0.00000000	         -0.31688000	          0.00000000	          0.00000000	          0.00000000	          0.00000000	          0.00000000	          0.00000000	          0.00000000	         -0.84983700	          0.00000000	          0.00000000	          0.00000000	          0.00000000	
          3.61000000	        122.32276200	        408.02603100	         25.78857600	          0.70510500	          0.00000000	         -0.31692800	          0.00000000	          0.00000000	          0.00000000	          0.00000000	          0.00000000	          0.00000000	          0.00000000	         -0.74884200	          0.00000000	          0.00000000	          0.00000000	          0.00000000	
          3.61100000	        119.98492400	        394.77575700	         25.19813200	          0.70320500	          0.00000000	         -0.31697200	          0.00000000	          0.00000000	          0.00000000	          0.00000000	          0.00000000	          0.00000000	          0.00000000	         -0.64847200	          0.00000000	          0.00000000	          0.00000000	          0.00000000	
          3.61200000	        117.63166000	        381.79757700	         24.61028500	          0.70132500	          0.00000000	         -0.31700800	          0.00000000	          0.00000000	          0.00000000	          0.00000000	          0.00000000	          0.00000000	          0.00000000	         -0.54895500	          0.00000000	          0.00000000	          0.00000000	          0.00000000	
          3.61300000	        115.26851700	        369.09256000	         24.02727100	          0.69946700	          0.00000000	         -0.31703500	          0.00000000	          0.00000000	          0.00000000	          0.00000000	          0.00000000	          0.00000000	          0.00000000	         -0.45051200	          0.00000000	          0.00000000	          0.00000000	          0.00000000	
          3.61400000	        112.90083300	        356.66104100	         23.45117400	          0.69763300	          0.00000000	         -0.31705100	          0.00000000	          0.00000000	          0.00000000	          0.00000000	          0.00000000	          0.00000000	          0.00000000	         -0.35335700	          0.00000000	          0.00000000	          0.00000000	          0.00000000	
          3.61500000	        110.53371400	        344.50262500	         22.88389400	          0.69582400	          0.00000000	         -0.31705200	          0.00000000	          0.00000000	          0.00000000	          0.00000000	          0.00000000	          0.00000000	          0.00000000	         -0.25769800	          0.00000000	          0.00000000	          0.00000000	          0.00000000	
          3.61600000	        108.17201200	        332.61615000	         22.32711200	          0.69404200	          0.00000000	         -0.31703700	          0.00000000	          0.00000000	          0.00000000	          0.00000000	          0.00000000	          0.00000000	          0.00000000	         -0.16373600	          0.00000000	          0.00000000	          0.00000000	          0.00000000	
          3.61700000	        105.82036600	        320.99984700	         21.78227000	          0.69228900	          0.00000000	         -0.31700400	          0.00000000	          0.00000000	          0.00000000	          0.00000000	          0.00000000	          0.00000000	          0.00000000	         -0.07166200	          0.00000000	          0.00000000	          0.00000000	          0.00000000	
          3.61800000	        103.48310100	        309.65133700	         21.25054600	          0.69056500	          0.00000000	         -0.31695000	          0.00000000	          0.00000000	          0.00000000	          0.00000000	          0.00000000	          0.00000000	         -0.00000000	          0.01834000	         -0.00000000	          0.00000000	          0.00000000	          0.00000000	
          3.61900000	        101.16424600	        298.56762700	         20.73283400	          0.68887200	          0.00000000	         -0.31687300	          0.00000000	          0.00000000	          0.00000000	          0.00000000	          0.00000000	          0.00000000	         -0.00000000	          0.10609600	         -0.00000000	          0.00000000	          0.00000000	          0.00000000	
